<svg xmlns="http://www.w3.org/2000/svg" viewBox="0 0 240 240"><defs><radialGradient id="wax" cx="42%" cy="34%" r="72%"><stop offset="0" stop-color="#6f42ca"/><stop offset=".45" stop-color="#4d258f"/><stop offset=".78" stop-color="#32125f"/><stop offset="1" stop-color="#21083f"/></radialGradient><linearGradient id="rim" x1="0" y1="0" x2="1" y2="1"><stop offset="0" stop-color="#9d73e8" stop-opacity=".82"/><stop offset=".5" stop-color="#4a1f8d" stop-opacity=".2"/><stop offset="1" stop-color="#140426" stop-opacity=".85"/></linearGradient><filter id="shadow" x="-30%" y="-30%" width="160%" height="160%"><feDropShadow dx="0" dy="8" stdDeviation="7" flood-color="#1b0a32" flood-opacity=".34"/></filter></defs><g filter="url(#shadow)"><path fill="url(#wax)" d="M119 8c9 0 16 8 24 10 8 2 18-2 26 2 8 4 10 14 17 19 7 5 17 5 23 12 6 7 4 17 8 25 4 8 13 13 15 22 2 9-5 17-5 26s7 17 5 26c-2 9-11 14-15 22-4 8-2 18-8 25-6 7-16 7-23 12-7 5-9 15-17 19-8 4-18 0-26 2-8 2-15 10-24 10s-16-8-24-10c-8-2-18 2-26-2-8-4-10-14-17-19-7-5-17-5-23-12-6-7-4-17-8-25-4-8-13-13-15-22-2-9 5-17 5-26s-7-17-5-26c2-9 11-14 15-22 4-8 2-18 8-25 6-7 16-7 23-12 7-5 9-15 17-19 8-4 18 0 26-2 8-2 15-10 24-10Z"/><circle cx="120" cy="120" r="90" fill="none" stroke="url(#rim)" stroke-width="7" opacity=".75"/><circle cx="120" cy="120" r="72" fill="#3e1778" fill-opacity=".22" stroke="#9c76de" stroke-opacity=".38" stroke-width="3"/><g fill="none" stroke="#c6a7f1" stroke-linecap="round" stroke-linejoin="round"><path d="M72 88c16-7 31-5 45 5v61c-13-10-28-12-45-5V88Z" stroke-width="7"/><path d="M168 88c-16-7-31-5-45 5v61c13-10 28-12 45-5V88Z" stroke-width="7"/><path d="M120 95v61" stroke-width="5"/><path d="M84 106c9-2 18-1 25 3M84 119c9-2 18-1 25 3M156 106c-9-2-18-1-25 3M156 119c-9-2-18-1-25 3" stroke-width="4" opacity=".85"/></g><g fill="#b79be5" opacity=".72"><circle cx="120" cy="42" r="3"/><circle cx="198" cy="120" r="3"/><circle cx="120" cy="198" r="3"/><circle cx="42" cy="120" r="3"/><circle cx="65" cy="65" r="2.5"/><circle cx="175" cy="65" r="2.5"/><circle cx="175" cy="175" r="2.5"/><circle cx="65" cy="175" r="2.5"/></g></g></svg>